<?xml version="1.0" encoding="utf-8"?>
<!-- Generator: Adobe Illustrator 25.4.1, SVG Export Plug-In . SVG Version: 6.00 Build 0)  -->
<svg version="1.1" id="Layer_1" xmlns="http://www.w3.org/2000/svg" xmlns:xlink="http://www.w3.org/1999/xlink" x="0px" y="0px"
	 viewBox="0 0 2330 1009.6" style="enable-background:new 0 0 2330 1009.6;" xml:space="preserve">
<style type="text/css">
	.st0{fill:none;}
	.st1{fill:#FFFFFF;}
</style>
<path class="st0" d="M913.7,601c1.3-6.5,2.5-12.9,3.6-19.4c0.7-3.8,1.2-7.5,1.7-11.3c0.7-5.9,1.4-11.8,1.9-17.7
	c0.6-7.2,1.2-14.4,1.4-21.7c0.1-2.4,0.1-4.7,0.2-7.1c0.6-12.4-0.1-24.7-0.5-37.1c0-0.3,0-0.5-0.1-0.8c-0.6-7.3-1.1-14.7-2-22
	c-0.8-6.8-1.7-13.6-2.8-20.3c-1.4-9-3.2-17.9-5.2-26.7c-17.8-79.2-57.9-151.6-115.3-208.9c-37.4-37.4-81.7-67.2-130.5-87.8
	c-20-8.5-40.6-15.2-61.7-20.3c-8.1-1.9-16.2-3.6-24.3-5.1c-5.3-1-10.7-1.8-16-2.5c-5.9-0.8-11.7-1.5-17.7-1.9
	c-5.2-0.3-10.5-1-15.8-1.2c-15.5-0.7-31.1-0.6-46.6,0.4c-8.4,0.6-16.8,1.4-25.1,2.4c-6.1,0.8-12.2,1.7-18.3,2.7
	c-9.9,1.7-19.6,3.8-29.3,6.3c-36.6,9.3-71.7,23.8-104.3,42.9c-43.2,25.3-81.4,58.1-112.9,96.9c-35.7,43.8-62.3,94.2-78.4,148.3
	c-3.7,12.4-6.8,24.9-9.3,37.5c-1.3,6.6-2.6,13.2-3.5,19.8c-0.6,4.3-1.2,8.6-1.8,12.9c-0.5,3.5-0.9,7-1.2,10.6
	c-0.4,4.7-0.7,9.5-1.1,14.2c-0.8,10-1,20-1,30c0.1,12.9,0.5,25.8,1.8,38.6c0.7,6.8,1.4,13.6,2.4,20.4c1.1,8.6,2.6,17.2,4.3,25.7
	c2.7,13.4,6,26.6,10,39.8c12.2,40.5,30.4,78.9,53.9,114c1.2,1.8,2.4,3.4,3.7,5.1c54.2,67.6,127.5,117.4,210.4,142.8
	c12.6,3.9,25.3,7.1,38.2,9.8c6.4,1.3,12.9,2.6,19.4,3.5c4.4,0.6,8.8,1.4,13.3,2c2.9,0.4,5.7,0.7,8.6,1c4.1,0.4,8.1,0.7,12.2,1.1
	c7.6,0.7,15.2,1,22.9,1.2c4.2,0.1,8.4,0,12.6,0c8.3,0.1,16.6-0.1,24.9-0.5c8.2-0.4,16.3-1.1,24.4-2c6.8-0.7,13.6-1.7,20.3-2.8
	c9-1.4,17.9-3.1,26.7-5.1c20-4.5,39.7-10.5,58.8-17.9c61.9-23.8,117.6-61.4,162.6-110.1c1.7-1.8,3.3-3.8,4.8-5.7
	c29-37.7,51.4-80.1,66.4-125.2C905.9,633.8,910.3,617.5,913.7,601z"/>
<path class="st0" d="M134.1,697.9c0.2,0.9,0.7,1.8,1.3,2.5l1.2-0.1c-0.4-1.4-1-2.7-1.9-3.9l0,0C134.5,696.9,134.6,697.5,134.1,697.9
	L134.1,697.9z"/>
<path class="st0" d="M940,483.3c-0.5-8.4-0.9-16.8-2-25.2c-0.7-5.2-1.1-10.5-1.9-15.7c-1.2-8.2-2.7-16.3-4.4-24.5
	c-3.4-16.3-7.8-32.5-13.2-48.2c-15.6-45.6-39.1-88.2-69.4-125.8C797,179.1,727.4,130.6,648.6,104.3c-15.3-5.1-30.9-9.4-46.8-12.7
	c-6.3-1.3-12.6-2.6-19-3.5c-3.9-0.6-7.8-1.2-11.7-1.8c-3.2-0.5-6.5-0.9-9.8-1.2c-3.7-0.4-7.3-0.8-11-1c-5.6-0.4-11.3-1-16.9-1.2
	c-16.8-0.5-33.7-0.6-50.5,0.4c-7.5,0.5-15,1.1-22.4,1.9s-14.9,1.9-22.3,3.2c-10.4,1.8-20.7,3.9-30.9,6.4
	c-84,20.8-159.8,66.3-217.6,130.6c-38.3,42.4-67.4,92.3-85.5,146.5c-5.1,15.2-9.2,30.7-12.4,46.4c-1.3,6.6-2.5,13.2-3.6,19.8
	c-0.7,4.3-1.2,8.6-1.7,12.9c-0.4,3.5-0.8,7.1-1.1,10.6c-0.4,5-1,10-1.2,15c-0.4,8.4-0.8,16.8-0.6,25.3c0.1,5.4,0.3,10.8,0.4,16.2
	c0.2,9.1,1,18.1,1.9,27.2c0.8,7.7,1.8,15.4,3.1,23.1c1.7,10.4,3.8,20.7,6.4,30.9c7.5,30.1,18.4,59.3,32.5,87
	c0.4,0.8,0.9,1.6,1.4,2.4c0.4,0.1,0.7,0.6,0.6,1c-0.1,0.2,0,0.5,0.2,0.6c0.4,0.1,0.7,0.6,0.6,1l0,0c-0.1,0.2,0,0.5,0.2,0.6
	c0.4,0.1,0.7,0.5,0.6,0.9l0,0c-0.1,0.2,0,0.5,0.2,0.6c0.5-0.4,0.5-1.1,0.7-1.6c0.1-0.2,0-0.5-0.2-0.7c-0.4-0.1-0.7-0.6-0.5-1
	c0,0,0,0,0,0l0,0c0.1-0.2,0-0.5-0.2-0.6c-0.4-0.2-0.7-0.7-0.5-1.1c0.1-0.2,0-0.4-0.2-0.5c0,0,0,0,0,0l0,0c-0.6-0.3-0.9-1-0.7-1.6
	c-0.1-0.5-0.3-1-0.5-1.5c-2.3-5.9-4.8-11.7-7-17.6c-7.1-18.7-12.8-37.8-17.2-57.3c-1.6-7.2-3.1-14.4-4.3-21.7
	c-1-5.4-1.8-10.9-2.5-16.4c-0.7-5.7-1.4-11.5-1.9-17.3c-0.6-6.8-1.2-13.6-1.4-20.5c0-1.5-0.1-2.9-0.2-4.3
	c-0.5-7.9-0.5-15.8-0.3-23.7c0.2-8.6,0.5-17.1,1.2-25.6c0.5-7,1.1-13.9,2-20.8c0.9-7.2,1.9-14.3,3.1-21.5c1.8-10.7,4.1-21.4,6.8-32
	c7.7-30.9,18.8-60.9,33.2-89.4c21.3-42.4,49.5-81,83.5-114.1c23.2-22.7,48.9-42.5,76.7-59.2c32.6-19.6,67.8-34.5,104.6-44.3
	c10.3-2.7,20.7-5.1,31.1-7c5.2-0.9,10.4-1.8,15.6-2.5s10.4-1.4,15.7-2c4.5-0.5,8.9-0.7,13.4-1.1c8.5-0.8,17.1-0.9,25.6-1
	c10.9-0.1,21.8,0.3,32.7,1c6.8,0.5,13.6,1.1,20.4,2c7.8,1,15.6,2.2,23.4,3.6c10.1,1.8,20.1,4,30,6.7c35.1,9.3,68.9,23.2,100.3,41.4
	c49.5,28.7,92.6,67.1,126.7,113.1c27.3,36.5,48.5,77.2,62.9,120.5c5.7,16.8,10.3,34,13.8,51.4c2.1,10.3,3.9,20.7,5.1,31.1
	c0.7,6,1.5,12,2,18c0.8,8.8,1.2,17.6,1.5,26.4c0.5,13.7,0,27.4-0.7,41c0,0.5-0.1,1-0.1,1.6c-0.4,4.6-0.8,9.2-1.2,13.8
	c-0.3,3.4-0.6,6.8-1.1,10.2c-1.1,7.8-2.2,15.6-3.6,23.4c-2,11.4-4.5,22.7-7.4,33.9c-8.5,32.3-20.7,63.5-36.4,93.1
	c-0.5,1-1,2.1-1.5,3.2c-1,1.1-1.8,2.5-2.3,4c-1,1.2-1.8,2.6-2.3,4c-1.2,1.5-2.1,3.1-2.8,4.9l0,0l-0.4,0.8l0,0
	c-0.5,0-0.6,0.3-0.8,0.7l0,0l-1.6,2.4l0,0c-0.6,0.5-1,1.1-1.2,1.8c-0.1,0.2-0.1,0.5,0.1,0.7c0.1,0.1,0.5,0.1,0.6,0
	c0.6-0.4,1.1-1,1.3-1.8c0.3-0.6,1-1.1,0.9-1.9c0.7-0.5,1.2-1.2,1.5-2c0.2-0.2,0.2-0.4,0.2-0.7l0,0c1.3-1.1,2.3-2.4,3-4
	c1-1.2,1.9-2.5,2.5-3.9c1.1-1.1,1.9-2.5,2.4-3.9c0.6-0.8,1.2-1.7,1.8-2.6c20.8-32.8,36.9-68.4,47.7-105.6c3.7-12.5,6.7-25.2,9-38
	c1-5.4,2-10.9,2.8-16.3c0.7-4.5,1.2-9.1,1.7-13.7c0.4-3.9,0.7-7.9,1.1-11.8c0.7-7,1.1-13.9,1.2-20.9c0.2-8,0-16.1,0-24.1
	C940.2,487,940.2,485.1,940,483.3z"/>
<path class="st0" d="M728.4,872c-1.4,0.4-2.6,1.1-3.7,2.1l0,0c-1.3,0.8-2.9,1.2-4,2.4c-1.3,0.8-2.9,1.2-4,2.3
	c-0.4-0.1-0.7,0.2-0.8,0.5l0,0c-2.3,0.8-4.4,2-6.3,3.4c-0.8,0.2-1.5,0.5-2.2,1.1l-7,3.4c-0.1,0-0.2,0.2-0.2,0.3
	c-0.3,0-0.5,0.1-0.7,0.2c-0.4-0.1-0.8,0.1-1,0.5c0,0,0,0,0,0.1c-0.5,0.2-1,0.3-1.5,0.5c-2.6,1.2-5.2,2.4-7.9,3.6
	c-26.7,12-54.6,21.4-83.1,28.1c-7.9,1.9-15.9,3.5-23.9,4.9c-6.7,1.2-13.5,2.1-20.3,3.1c-2.7,0.4-5.5,0.7-8.2,0.9
	c-3.9,0.4-7.8,0.7-11.8,1.1c-6.7,0.7-13.4,1-20.1,1.2c-10.7,0.3-21.3,0.3-32,0c-2,0-4-0.1-5.9-0.3c-5.5-0.4-11-0.8-16.5-1.2
	c-3.8-0.3-7.6-0.6-11.4-1.1c-5-0.6-9.9-1.3-14.8-2c-5.6-0.8-11.2-1.7-16.7-2.7c-9-1.7-18-3.6-26.9-5.9c-0.6-0.1-1.3-0.2-2-0.3
	c-0.4-0.4-0.8-0.6-1.4-0.7c-3.5-0.9-7-1.9-10.5-2.8c-0.7-0.2-1.5-0.3-2.3-0.5c-0.2-0.2-0.4-0.3-0.6-0.5c-2.8-0.8-5.5-1.6-8.3-2.4
	l0,0l-1.5-0.3l0,0c-0.2-0.4-0.7-0.7-1.2-0.7c-0.4-0.1-0.8-0.1-1.1-0.1l0,0c-0.3-0.7-0.9-0.6-1.5-0.7c-0.6-0.6-1.5-0.9-2.3-0.8l0,0
	c-0.7-0.6-1.6-0.9-2.5-0.8l0,0c-1.2-0.7-2.6-1.2-4-1.4c-0.2-0.5-0.7-0.8-1.3-0.7c-0.2,0.1-0.4,0.2-0.6,0.4c0,0.1,0.1,0.2,0.1,0.3
	c0.4,0.5,1.1,0.8,1.8,0.7l0,0l3.9,1.6l0,0l1.6,0.6l0,0l2.4,0.8l2.4,0.8l0,0l2.3,0.8l0,0l1.5,0.4l0,0c2.5,1.3,5.2,2.3,8,2.9l0,0
	c3.9,1.6,7.9,2.7,11.9,4c0.3,0,0.5,0,0.8,0c0.6,0.3,1.2,0.5,1.8,0.7c4.3,1.2,8.6,2.5,12.9,3.6c10.2,2.7,20.4,5,30.8,6.8
	c5.8,1,11.7,1.9,17.5,2.9c2.6,0.4,5.2,0.7,7.8,1c3.7,0.4,7.3,0.8,11,1.1c5.5,0.5,11,1,16.5,1.2c6.6,0.3,13.2,0.4,19.7,0.4
	c14.6,0,29.2-0.8,43.7-2.4c6.8-0.8,13.6-1.7,20.3-2.7c10.4-1.7,20.7-3.8,30.9-6.3c31.9-7.9,62.8-19.6,91.9-35
	c0.8-0.4,1.6-0.9,2.4-1.4c0.4,0.1,0.8-0.1,0.9-0.5l0,0c0.2,0,0.5-0.1,0.6-0.3c2.4-0.9,4.6-2.1,6.5-3.7l0,0c0.8-0.2,1.5-0.5,2.1-1.1
	c2-0.8,3.8-1.9,5.6-3.2c0.8-0.2,1.5-0.7,2-1.3l0,0c0.4-0.1,0.7-0.2,1.1-0.3c0.8-0.4,1.5-0.9,2.3-1.4l0,0l4-2.3l0,0
	c1.1-0.7,2.2-1.4,3.3-2.1c0.2-0.1,0.3-0.3,0.2-0.5c0-0.1-0.1-0.1-0.1-0.1C728.7,872.1,728.5,872,728.4,872z"/>
<path class="st1" d="M943.7,501.1v-0.4c0.2-14-0.3-27.9-1.6-41.8c-0.8-8.4-1.9-16.7-3.1-25.1c-1.5-10.3-3.5-20.5-5.9-30.6
	c-5.9-25.2-14.2-49.8-24.7-73.5c-22.9-51.8-55.7-98.6-96.6-137.8c-31.9-30.9-68.5-56.6-108.4-76.2c-26.9-13.2-55.1-23.8-84.1-31.4
	c-10.8-2.9-21.7-5.4-32.7-7.3c-5.4-1-10.9-2-16.3-2.8c-4.4-0.7-8.9-1.2-13.3-1.7c-3.7-0.4-7.3-0.8-11-1.1
	c-5.1-0.4-10.2-0.9-15.3-1.2c-6.2-0.3-12.4-0.5-18.5-0.6c-5.4-0.1-10.8-0.1-16.2,0.1c-7.2,0.2-14.5,0.3-21.7,1
	c-4.5,0.4-8.9,0.6-13.4,1.1c-7.2,0.8-14.4,1.7-21.5,2.8c-9.9,1.5-19.7,3.4-29.5,5.5c-18.2,4-36.2,9.2-53.8,15.5
	c-51.1,18.2-98.4,45.5-139.6,80.7c-39.5,33.4-72.5,73.8-97.6,119c-16.9,30.5-29.9,63-38.8,96.7c-2.6,9.9-4.8,19.9-6.7,30
	c-1.2,6.6-2.3,13.2-3.2,19.9c-0.8,5.6-1.3,11.2-1.9,16.9c-0.8,6.8-1.3,13.6-1.5,20.5c0,1.2-0.1,2.4-0.2,3.5
	c-0.6,11.2-0.7,22.4-0.1,33.5c0.3,6.2,0.5,12.4,1.1,18.5c0.4,4,0.6,8.1,1.1,12.2c0.8,6.9,1.7,13.8,2.8,20.7
	c1.5,9.6,3.4,19.2,5.5,28.7c5,22.1,11.8,43.7,20.3,64.6c21.5,52.9,53.6,101,94.2,141.2c31.1,31,66.7,57.1,105.5,77.6
	c1.5,0.8,3,1.7,4.5,2.5c30.9,18.5,64.2,32.9,98.9,42.7c10.6,3,21.4,5.6,32.2,7.6c5.3,1,10.6,2,15.9,2.8c4.4,0.7,8.9,1.3,13.3,1.8
	c3.5,0.4,7.1,0.7,10.6,1.1c6.3,0.7,12.6,1.1,18.9,1.3c3.8,0.1,7.6,0.3,11.5,0.4c5.3,0.1,10.5,0.1,15.8,0c5.5-0.1,11.1-0.2,16.6-0.6
	c7.3-0.5,14.7-1.1,22-2s14.6-1.9,21.9-3.1c10.2-1.7,20.4-3.9,30.5-6.4c29.2-7.3,57.5-17.9,84.4-31.5c33.9-17.1,65.2-38.8,93.1-64.5
	c1.3-1.2,2.7-2.5,4.2-3.7c10.8-9.1,21.1-18.7,30.8-28.8c54-56,91.2-121.5,110.1-197.1c2.3-9.2,4.2-18.5,5.8-27.8
	c1.1-6.1,1.9-12.2,2.7-18.3s1.4-12.3,1.9-18.5c0.6-7.3,1.1-14.7,1.1-22.1C943.5,510.8,943.6,505.9,943.7,501.1L943.7,501.1z
	 M728.7,872.8c-1.1,0.7-2.2,1.4-3.3,2.1l0,0l-4,2.3l0,0c-0.8,0.5-1.5,1-2.3,1.4c-0.4,0.1-0.7,0.2-1.1,0.3l0,0
	c-0.5,0.6-1.2,1.1-2,1.3c-1.7,1.3-3.6,2.4-5.6,3.2c-0.6,0.5-1.3,0.9-2.1,1.1l0,0c-2,1.6-4.2,2.8-6.5,3.7c-0.1,0.2-0.4,0.3-0.6,0.3
	c-0.1,0.4-0.5,0.7-0.9,0.6l0,0c-0.8,0.5-1.6,1-2.4,1.4c-29.1,15.3-59.9,27.1-91.8,34.9c-10.2,2.5-20.5,4.6-30.9,6.3
	c-6.7,1.1-13.5,2-20.3,2.7c-14.5,1.6-29.1,2.5-43.7,2.4c-6.6,0-13.2-0.1-19.7-0.4c-5.5-0.2-11-0.7-16.5-1.2c-3.7-0.3-7.3-0.7-11-1.1
	c-2.6-0.3-5.2-0.5-7.8-1c-5.8-0.9-11.7-1.9-17.5-2.9c-10.4-1.8-20.6-4.1-30.8-6.8c-4.3-1.1-8.6-2.4-12.9-3.6
	c-0.6-0.2-1.2-0.5-1.8-0.7c-0.3,0-0.5,0-0.8,0c-4-1.3-8-2.4-11.9-4l0,0c-2.8-0.6-5.5-1.6-8-2.9l0,0l-1.5-0.4l0,0l-2.3-0.8l0,0
	l-2.4-0.8l-2.4-0.8l0,0l-1.6-0.6l0,0l-3.9-1.6l0,0c-0.7,0.1-1.3-0.2-1.8-0.7c-0.1-0.1-0.2-0.3-0.1-0.3c0.1-0.2,0.3-0.3,0.6-0.4
	c0.5-0.1,1.1,0.2,1.3,0.7c1.4,0.2,2.8,0.7,4,1.4l0,0c0.9,0,1.8,0.3,2.5,0.8l0,0c0.9,0,1.7,0.3,2.3,0.8c0.6,0,1.2,0,1.5,0.7l0,0
	c0.4,0,0.8,0.1,1.1,0.1c0.5,0,1,0.3,1.2,0.7l0,0l1.5,0.3l0,0c2.8,0.8,5.5,1.6,8.3,2.4c0.2,0.1,0.4,0.3,0.6,0.5
	c0.8,0.2,1.5,0.3,2.3,0.5c3.5,0.9,7,1.9,10.5,2.8c0.5,0.1,1,0.3,1.4,0.7c0.7,0,1.3,0.1,2,0.3c8.9,2.3,17.9,4.2,26.9,5.9
	c5.5,1,11.1,1.9,16.7,2.7c4.9,0.8,9.9,1.4,14.8,2c3.8,0.5,7.6,0.8,11.4,1.1c5.5,0.4,11,0.8,16.5,1.2c2,0.1,3.9,0.2,5.9,0.3
	c10.7,0.3,21.3,0.3,32,0c6.7-0.2,13.4-0.6,20.1-1.2c3.9-0.4,7.9-0.7,11.8-1.1c2.8-0.3,5.5-0.5,8.2-0.9c6.8-1,13.5-2,20.3-3.1
	c8-1.4,16-3,23.9-4.9c28.5-6.7,56.4-16.1,83.1-28.1c2.6-1.2,5.2-2.4,7.9-3.6c0.5-0.2,1-0.3,1.5-0.5c0.1-0.4,0.5-0.7,0.9-0.6
	c0,0,0,0,0,0h0.1c0.2-0.2,0.4-0.3,0.7-0.2c0.1-0.1,0.1-0.3,0.2-0.3l7-3.4c0.6-0.5,1.4-0.9,2.2-1.1c1.9-1.4,4.1-2.6,6.3-3.4l0,0
	c0.1-0.4,0.5-0.5,0.8-0.5c1.1-1.2,2.7-1.6,4-2.3c1.1-1.2,2.7-1.6,4-2.4l0,0c1.1-0.9,2.3-1.7,3.7-2.1c0.1,0,0.2,0,0.3,0.1
	c0.2,0.1,0.2,0.3,0.1,0.5C728.9,872.6,728.8,872.7,728.7,872.8L728.7,872.8z M829.3,780.7c-45,48.7-100.7,86.4-162.6,110.1
	c-19.1,7.4-38.8,13.3-58.8,17.9c-8.8,2-17.7,3.7-26.7,5.1c-6.8,1.1-13.5,2.1-20.3,2.8c-8.1,0.9-16.2,1.5-24.4,2
	c-8.3,0.4-16.6,0.6-24.9,0.5c-4.2,0-8.4,0.1-12.6,0c-7.6-0.2-15.3-0.5-22.9-1.2c-4.1-0.4-8.1-0.7-12.2-1.1c-2.9-0.3-5.8-0.6-8.6-1
	c-4.4-0.6-8.8-1.4-13.3-2c-6.5-0.9-13-2.2-19.4-3.5c-12.9-2.7-25.6-6-38.2-9.8c-82.8-25.5-156.1-75.2-210.4-142.8
	c-1.3-1.7-2.6-3.3-3.7-5.1c-23.5-35.1-41.7-73.5-53.9-114c-4-13.1-7.3-26.3-10-39.8c-1.7-8.5-3.2-17.1-4.3-25.7
	c-0.9-6.8-1.7-13.6-2.4-20.4c-1.3-12.8-1.8-25.7-1.8-38.6c-0.1-10,0.2-20,1-30c0.4-4.7,0.7-9.5,1.1-14.2c0.3-3.5,0.8-7.1,1.2-10.6
	c0.6-4.3,1.2-8.6,1.8-12.9c0.9-6.6,2.1-13.2,3.5-19.8c2.6-12.6,5.6-25.1,9.3-37.5c16-54.2,42.6-104.6,78.3-148.3
	c31.5-38.8,69.8-71.7,112.9-96.9c32.6-19.1,67.7-33.5,104.3-42.9c9.7-2.5,19.4-4.6,29.3-6.3c6.1-1.1,12.2-2,18.3-2.7
	c8.4-1,16.7-1.8,25.1-2.4c15.5-1,31.1-1.1,46.6-0.4c5.3,0.2,10.5,0.8,15.8,1.2c5.9,0.4,11.8,1.2,17.7,1.9c5.3,0.7,10.7,1.5,16,2.5
	c8.2,1.5,16.3,3.2,24.3,5.1c21.1,5.1,41.7,11.8,61.7,20.3c48.8,20.6,93.1,50.4,130.5,87.8c57.5,57.3,97.5,129.7,115.3,208.9
	c2,8.9,3.7,17.8,5.2,26.7c1.1,6.8,2,13.5,2.8,20.3c0.8,7.3,1.3,14.7,2,22c0,0.3,0,0.5,0.1,0.8c0.5,12.4,1.1,24.7,0.5,37.1
	c-0.1,2.4-0.2,4.7-0.2,7.1c-0.2,7.2-0.8,14.5-1.4,21.7c-0.5,5.9-1.2,11.8-1.9,17.7c-0.5,3.8-1,7.6-1.7,11.3
	c-1.1,6.5-2.3,13-3.6,19.4c-3.4,16.5-7.7,32.8-13.1,48.7c-15,45.2-37.5,87.5-66.4,125.2C832.6,776.9,831,778.8,829.3,780.7
	L829.3,780.7z M940.2,512.9c-0.1,7-0.5,13.9-1.2,20.9c-0.4,3.9-0.7,7.9-1.1,11.8c-0.5,4.6-1,9.2-1.7,13.7
	c-0.8,5.5-1.8,10.9-2.8,16.3c-2.3,12.8-5.3,25.5-9,38c-10.8,37.3-26.9,72.9-47.7,105.7c-0.6,0.9-1.2,1.7-1.8,2.6
	c-0.5,1.5-1.3,2.8-2.4,3.9c-0.6,1.4-1.5,2.7-2.5,3.9c-0.7,1.6-1.7,2.9-3,4l0,0c0,0.3,0,0.5-0.2,0.7c-0.2,0.8-0.8,1.5-1.5,2
	c0,0.8-0.6,1.2-0.9,1.9c-0.2,0.7-0.7,1.4-1.3,1.8c-0.1,0.1-0.5,0.1-0.6,0c-0.1-0.2-0.1-0.4-0.1-0.7c0.2-0.7,0.6-1.4,1.2-1.8l0,0
	l1.6-2.4l0,0c0.1-0.4,0.3-0.7,0.8-0.7l0,0l0.4-0.8l0,0c0.7-1.7,1.7-3.4,2.8-4.9c0.6-1.4,1.4-2.8,2.3-4c0.5-1.5,1.2-2.9,2.3-4
	c0.5-1.1,1-2.1,1.5-3.2c15.6-29.5,27.8-60.8,36.4-93.1c2.9-11.2,5.4-22.5,7.4-33.9c1.4-7.8,2.5-15.6,3.6-23.4
	c0.5-3.4,0.8-6.8,1.1-10.2c0.4-4.6,0.8-9.2,1.2-13.8c0-0.5,0.1-1,0.1-1.6c0.7-13.7,1.2-27.3,0.7-41c-0.3-8.8-0.7-17.6-1.5-26.4
	c-0.5-6-1.3-12-2-18c-1.2-10.5-3-20.8-5.1-31.1c-3.5-17.4-8.2-34.5-13.8-51.4c-14.4-43.3-35.6-83.9-62.9-120.5
	c-34.6-46.2-76.7-84.1-126.7-113.1c-31.4-18.2-65.2-32.1-100.3-41.4c-9.9-2.6-19.9-4.8-30-6.7c-7.8-1.4-15.6-2.6-23.4-3.6
	c-6.8-0.8-13.6-1.5-20.4-2c-10.9-0.8-21.8-1.2-32.7-1c-8.6,0.1-17.1,0.3-25.6,1c-4.5,0.4-8.9,0.6-13.4,1.1c-5.2,0.6-10.4,1.3-15.7,2
	s-10.4,1.6-15.6,2.5c-10.5,1.9-20.9,4.3-31.1,7c-36.8,9.8-72,24.7-104.6,44.3c-27.8,16.7-53.5,36.5-76.7,59.2
	c-34,33.1-62.2,71.7-83.4,114.1c-14.3,28.4-25.4,58.4-33.2,89.3c-2.7,10.6-4.9,21.3-6.8,32c-1.2,7.1-2.3,14.3-3.1,21.5
	c-0.9,6.9-1.5,13.9-2,20.8c-0.6,8.5-1,17.1-1.2,25.6c-0.2,7.9-0.2,15.8,0.3,23.7c0.1,1.5,0.1,2.9,0.2,4.3c0.2,6.8,0.8,13.7,1.4,20.5
	c0.5,5.8,1.2,11.5,1.9,17.3c0.7,5.5,1.5,10.9,2.5,16.4c1.3,7.3,2.7,14.5,4.3,21.7c4.4,19.5,10.1,38.7,17.2,57.4
	c2.2,5.9,4.7,11.7,7,17.6c0.2,0.5,0.3,1,0.5,1.5c0.5,0.4,0.8,1,0.7,1.6c0.2,0.1,0.3,0.3,0.2,0.5c0,0,0,0,0,0l0,0
	c0.4,0.2,0.7,0.7,0.5,1.1c0.2,0.1,0.3,0.4,0.2,0.6c0.4,0.1,0.7,0.6,0.5,1c0,0,0,0,0,0l0,0c0.2,0.2,0.3,0.4,0.2,0.7
	c0.8,0.9,1.4,2,1.6,3.2l0,0c0.3,0.2,0.5,0.5,0.5,0.9c0.1,0.2,0.2,0.5,0.3,0.7l0,0c0.9,1.2,1.5,2.5,1.9,3.9c1,1.5,1.8,3.1,2.3,4.8
	l0,0c0.4,0.1,0.5,0.4,0.6,0.7c0.5,0.4,0.8,0.9,0.9,1.5c0.8,1.2,1.5,2.4,1.9,3.8c0,0.1,0,0.2-0.1,0.3c-0.1,0.2-0.3,0.2-0.5,0.2
	c-0.1,0-0.1-0.1-0.2-0.2c-0.7-1.1-1.4-2.2-2.1-3.3l0,0c-0.2-0.5-0.5-1.1-0.8-1.6l0,0l-0.8-1.6c-1-1.5-1.9-3-2.5-4.7
	c-0.6-0.7-1.1-1.5-1.3-2.5l0,0c-0.2-0.1-0.3-0.4-0.3-0.6c-0.4-0.1-0.6-0.5-0.6-0.9c-0.7-1-1.3-2-1.6-3.2c-0.2-0.1-0.3-0.4-0.2-0.6
	l0,0c-0.4-0.1-0.7-0.5-0.6-0.9c-0.2-0.1-0.3-0.4-0.2-0.6c-0.4-0.1-0.7-0.6-0.6-1c-0.2-0.1-0.3-0.3-0.2-0.6l0,0
	c-0.4-0.1-0.7-0.6-0.6-1c-0.5-0.8-1-1.5-1.4-2.4c-14.1-27.7-25-56.9-32.5-87c-2.5-10.2-4.6-20.5-6.4-30.9
	c-1.3-7.7-2.3-15.3-3.1-23.1c-0.9-9-1.7-18.1-1.9-27.2c-0.1-5.4-0.3-10.8-0.4-16.2c-0.1-8.4,0.3-16.8,0.6-25.3c0.2-5,0.8-10,1.2-15
	c0.3-3.5,0.7-7.1,1.1-10.6c0.5-4.3,1-8.6,1.7-12.9c1.1-6.6,2.2-13.2,3.6-19.8c3.2-15.7,7.3-31.2,12.4-46.4
	c18.1-54.2,47.2-104.1,85.5-146.5c57.8-64.3,133.6-109.9,217.6-130.6c10.2-2.5,20.5-4.6,30.9-6.4c7.4-1.3,14.8-2.3,22.3-3.2
	s14.9-1.5,22.4-1.9c16.8-1.1,33.7-1,50.5-0.4c5.7,0.2,11.3,0.7,16.9,1.2c3.7,0.3,7.3,0.7,11,1c3.3,0.3,6.5,0.8,9.8,1.2
	c3.9,0.6,7.8,1.2,11.7,1.8c6.4,0.9,12.7,2.2,19,3.5c15.8,3.3,31.4,7.6,46.8,12.7c78.9,26.4,148.5,74.9,200.6,139.7
	c30.3,37.6,53.8,80.1,69.4,125.8c5.4,15.8,9.9,31.9,13.3,48.2c1.7,8.1,3.1,16.3,4.4,24.5c0.8,5.2,1.3,10.5,1.9,15.7
	c1,8.4,1.4,16.8,2,25.2c0.1,1.8,0.2,3.7,0.2,5.5C940.2,496.8,940.4,504.8,940.2,512.9z"/>
<path class="st1" d="M544.7,745.1c-0.8-0.8-1.7-1.5-2.8-2c-4.2-1.8-4.7-5.3-4.7-9.4c0.1-15.1,0-30.3,0-45.4v-3.4
	c0-1.9,0.7-3.8,2.1-5.1c2.1-2.2,4.2-4.3,6.4-6.5l49.8-49.8c2.1-2.1,4.4-4.2,6.3-6.5c0.9-1.2,1.5-2.6,1.7-4.1
	c0.2-2.3,0.2-4.5,0.1-6.8v-44.3l0,0v-51.1c-0.1-2.7,1-5.2,3-7c13.7-12.5,27.4-24.9,41.1-37.5c1.6-1.7,4-2.4,6.2-1.8
	c5.1,1.4,10.5,1.7,15.7,0.8c15.8-3,29.7-21.6,21-41.6c-5.4-12.4-19.8-19.9-32.6-17.2c-16.2,3.4-24.7,16.8-24.5,28.6
	c-0.1,1.9,0,3.8,0.3,5.6c1.1,4.4-1.1,7-4.1,9.7c-10.2,9.1-20.1,18.4-30.2,27.5c-8.7,7.8-6.4,7.8-14.7-0.3
	c-10.5-10.4-20.9-20.9-31.3-31.3c-1.2-1-1.3-2.8-0.3-3.9l0.1-0.1c2.4-2.5,4.7-4.9,7.2-7.3c15.2-15.2,30.6-30.5,45.8-45.8
	c5.9-6,5.1-4,5.2-12.9c0-18.2,0.1-36.3,0-54.5c0-4.1,0.7-7.1,4.6-9.3c2.6-1.5,4.9-3.5,6.8-5.9c7.3-8.9,8.9-19,5-29.8
	c-4.5-12.6-17.9-22-34.8-18.6c-11,2.2-20.7,12.4-22.4,23.2c-1.9,12.2,1.6,22.4,11.5,30.1c0.9,0.7,1.9,1.3,2.8,1.9
	c2,1.2,3.1,3.4,2.9,5.7v51.1c0,0.4,0,0.8-0.1,1.1c-0.5,1.4-0.8,3-1.7,4.1c-1.9,2.3-4.2,4.4-6.3,6.5c-17.7,17.7-35.3,35.3-53,53
	c-2.4,2.4-4.8,4.9-7.1,7.3c-0.8,0.8-0.9,2.1-0.3,3.1c1.8,1.9,3.6,3.9,5.5,5.8c15.8,15.8,31.6,31.6,47.4,47.4
	c2.1,2.1,4.3,4.3,6.3,6.6c0.6,0.9,1.1,1.9,1.3,3c0.2,1.1,0.2,2.3,0.1,3.4v67c0.1,1.1-0.1,2.3-0.4,3.3c-0.4,0.6-1.1,0.9-1.9,0.8
	c-1.3-0.7-2.6-1.5-3.7-2.5c-14-11.5-27.9-23.3-42.1-34.6c-4.9-3.9-8-7.8-6.2-14.2c0-0.4,0-0.8,0-1.1c0-15.8-14-30-31.3-29
	c-19.1,1.2-28.4,17.4-28.4,29.8c0,13.4,10.3,28.4,27.1,29.9c4.5,0.4,9.1-0.2,13.4-1.6c2.1-0.8,4.6-0.4,6.2,1.2
	c19.5,16.2,39.1,32.3,58.6,48.5c0.3,0.2,0.5,0.5,0.8,0.8c0.9,0.7,1.1,2,0.5,3c-0.7,0.9-1.4,1.8-2.2,2.5c-13.6,13.7-27.3,27.3-41,41
	c-0.8,0.8-1.6,1.6-2.6,2.2c-0.6,0.3-1.3,0.4-2,0.2c-1.6-1.1-3-2.2-4.4-3.5c-26.7-25.2-53.3-50.5-79.9-75.8c-1.2-1-2.2-2-3.2-3.2
	c-0.8-1.2-1.5-2.6-1.8-4c-0.2-1.5-0.2-3-0.1-4.5c0-34.8,0.1-69.6-0.1-104.5c0-4.9,1.1-8.8,5-12c1.8-1.4,3.2-3.2,4.9-4.8l84.3-84.4
	c2.1-2.1,4.4-4.2,6.3-6.5c0.9-1.1,1.5-2.5,1.7-4c0.3-3,0.2-6,0.2-9.1v-61.3c0-3,0-6.1,0-9.1c0-1.5,0.7-3,2-3.9
	c2.1-1.6,4.4-2.9,6.4-4.7c12.4-10.9,12.6-30.6,2.3-42c-5.3-6.1-12.9-9.7-20.9-10c-23-1.1-36.3,21.3-30.1,38.9
	c2.2,6.3,5.5,11.9,11.2,15.2c4.8,2.7,5.6,6.3,5.5,11.2c-0.2,19.7-0.1,39.4-0.1,59c0,1.5-0.1,3,0,4.5c0.1,1.9-0.6,3.8-1.9,5.1
	c-1.6,1.6-3.2,3.2-4.8,4.8c-25.9,26-51.9,52-77.9,77.9c-1.1,1.1-2.1,2.1-3.2,3.2c-1.8,1.7-3.4,1.8-4.9,0.4c-2.2-2.1-4.3-4.2-6.5-6.4
	c-17.4-17.4-34.9-34.7-52.1-52.2c-5.5-5.6-11.9-10.5-16.3-17.2l-0.3-23.8v-1.1c0-1.5,0.7-3,1.9-3.9c1.2-1,2.4-1.8,3.6-2.8
	c8.2-6.8,11.4-15.6,10.8-26.1c-0.9-15.4-17-32.1-38.8-25.5c-11.4,3.6-18.4,12-20.3,23.8s2.2,21.6,11.8,28.9c1.8,1.4,3.9,2.3,5.7,3.7
	c0.9,0.7,1.5,1.7,1.7,2.8c0.2,2.3,0.3,4.5,0.2,6.8v25c0,2.3,0.9,4.5,2.6,6c2.2,2,4.3,4.3,6.4,6.4c25.2,25.2,50.3,50.3,75.5,75.4
	c3.1,3.1,4.8,6.2,4.7,10.9c-0.2,27.6-0.1,55.3-0.1,82.9c0,1.5-0.1,3-0.2,4.5c0,0.3-0.4,0.5-0.6,0.8c-0.4,0.6-1.3,0.7-1.9,0.3
	c0,0,0,0,0,0l-0.1-0.1c-10-8.7-20-17.3-29.9-26c-1.2-1-1.6-2.6-1.2-4.1c1.1-5.2,2-10.3,0.7-15.7c-3-12.2-10.5-19.9-22.5-22.9
	c-11.3-2.8-21.1,0.7-28.8,9.1s-10.1,18.5-6.2,29.5c3.8,10.9,11.4,17.5,22.7,19.9c4.1,0.8,8.3,0.7,12.4-0.2c2.2-0.5,4.6,0.1,6.2,1.8
	c13.6,12,27.3,23.9,41,35.9c6.5,5.8,13.1,11.5,19.4,17.5c28.1,26.5,56.1,53.1,84.1,79.7c1.9,1.8,3.8,3.7,5.7,5.5
	c1.1,1,1.7,2.5,1.7,4v53.4c0.1,1.5-0.7,3-1.9,3.8c-2.8,1.9-5.5,4-8,6.3c-8.7,9-10.8,22.5-5.1,33.7c5.4,11.1,17.9,18.2,29.8,16.6
	c13.6-1.8,22.5-10.1,25.6-21.1C557.5,764.7,554.7,753.7,544.7,745.1z"/>
<path class="st1" d="M704.2,534.4c3.9,1.4,8.2,1.4,12.3,1c13.8-1.2,25.3-12.8,26.5-26.7c1.4-16.7-10.9-31.3-27.5-32.7
	c-1.1-0.1-2.3-0.1-3.5-0.1c-14,0.5-28.3,12.1-28.6,28.2c-0.1,2.3,0,4.5,0.4,6.8c0.5,2.6-0.5,5.3-2.7,6.9c-8.4,7.1-16.5,14.4-25,21.4
	c-3.1,2.6-4.7,5.5-4.6,9.6c0.2,15.5,0.1,31,0.1,46.5l0,0c0,16.3,0,32.5,0,48.8c0.1,3-1.1,6-3.3,8.1c-11.6,11.9-23.2,23.9-34.8,35.8
	c-0.3,0.3-0.5,0.5-0.8,0.8c-1.1,1.1-2.6,1.6-4.1,1.5c-3.4-0.5-6.7-0.8-10.1-0.9c-17.5,0.2-34.5,18.3-26.5,40.6
	c4.5,12.5,15.8,19.3,29.3,19c15.8-0.3,28.4-14.3,28.3-28.4c-0.1-3.4-0.4-6.8-1.1-10.1c-0.4-1.9,0.1-3.8,1.5-5.1
	c1.8-1.9,3.7-3.8,5.5-5.7l31.6-32.6c2.1-2.2,4.2-4.4,6.3-6.6c1.1-1.1,1.6-2.6,1.6-4.1v-90.8c0-3,0.1-6,0.1-9.1c0-1.5,0.8-2.9,2-3.9
	c6.6-5.7,13.2-11.4,19.7-17.1C699.2,533.6,701.3,533.4,704.2,534.4z"/>
<path class="st1" d="M439.2,684.3c-5-1.7-10.5-1.9-15.6-0.6c-1.8,0.6-3.8-0.1-5.1-1.5c-13.1-14.2-26.1-28.4-39.2-42.6
	c-1.9-1.9-2.5-4.7-1.6-7.3c1.5-5.1,1.6-10.5,0.2-15.7c-3.4-12.2-11.4-19.4-23.5-22.1c-11.5-2.5-24.1,2.9-30.5,13
	c-6.6,10.3-7.2,22,0.2,33.1c6.7,10,16.5,14,27.1,13.1c2.4-0.3,3.5-0.4,4.7-0.6c1.9-0.4,3.8,0.2,5.1,1.6c13.3,14.5,26.6,29,39.9,43.5
	c1.4,1.4,1.9,3.4,1.2,5.2c-2.3,6.5-2.2,13.6,0.5,20c7.3,18.8,27.5,23,41.2,16.2c10.9-5.3,17.4-16.6,16.5-28.7
	C459.5,698.2,451.4,688.3,439.2,684.3z"/>
<path class="st1" d="M1221.6,219.1c-6.7-18.1-19.5-27.1-38.2-27.1c-9.5,0-17.3,2.8-23.5,8.4s-9.3,12.2-9.3,20
	c0,9.3,3.3,16.6,9.8,22.1s16.7,11.6,30.6,18.3c8.8,4.2,16.2,8,21.9,11.4c5.9,3.5,11.4,7.6,16.4,12.3c5.3,5.1,9.5,11.1,12.5,17.9
	c3.2,7,4.7,15.3,4.7,24.8c0.1,9.9-1.9,19.8-6,28.9c-3.9,8.7-9.8,16.4-17,22.6c-7.8,6.6-16.8,11.5-26.5,14.7
	c-20.7,6.5-42.8,6.9-63.7,1.3c-9.1-2.6-16.1-5.8-21.1-9.6c2.3-7.8,4.2-14.7,5.5-20.7s2.6-12.5,3.6-19.4h6c1.7,9.5,6.6,18.2,14,24.5
	c7.5,6.4,17.3,9.6,29.5,9.6c11.8,0,20.9-3,27.3-9.1c6.4-6.1,9.6-13.8,9.6-23c0-9.5-3.3-17-9.8-22.6c-6.5-5.6-16.5-11.6-30-18.1
	c-8.8-4.4-16-8.3-21.6-11.5c-5.8-3.4-11.1-7.5-15.9-12.1c-5.2-5-9.3-11-12.2-17.7c-3-6.9-4.6-15.1-4.6-24.6
	c-0.1-9.8,1.8-19.5,5.7-28.6c3.6-8.2,8.9-15.5,15.6-21.5c6.7-5.8,14.4-10.3,22.8-13.1c8.7-3,17.8-4.5,27-4.4
	c21.5,0,38.7,5.2,51.8,15.5c-1.7,4.4-3.2,8.8-4.6,13.1c-1.4,4.3-3.1,9.9-5.2,16.9l-0.3,1.3L1221.6,219.1z"/>
<path class="st1" d="M1323.6,227.9c0-8-0.1-14.2-0.2-18.5c0-3.1-0.3-6.2-0.8-9.3c-6.1,0-14.9,0.4-26.5,1.3
	c-11.6,0.8-22,1.8-31.2,2.8c2.1-9.1,2.1-18.6,0-27.8c2.9,0,5.8,0.1,8.5,0.3c13.3,0.4,24.9,0.7,34.9,0.9c10,0.2,22.9,0.3,38.7,0.3
	c16.8,0,30.1-0.1,39.9-0.3c9.8-0.2,21.1-0.5,33.9-0.9l6.3-0.3c-2.1,9.1-2.1,18.6,0,27.8c-8.2-1.1-18-2-29.3-2.8s-20.3-1.3-26.8-1.3
	c-0.2,2.1-0.4,5.3-0.5,9.5c-0.1,4.2-0.2,10.3-0.2,18.3v78.9c0,17,0.2,32.4,0.6,46.1c0.4,13.7,1,27.5,1.9,41.3l-2.8-0.3
	c-9.5-0.8-17.1-1.3-23-1.3c-5.9,0-13.5,0.4-23,1.3l-2.8,0.3c1-13.9,1.7-27.7,2-41.3c0.3-13.7,0.4-29,0.5-46.1L1323.6,227.9z"/>
<path class="st1" d="M1511.3,293.9h-2.8v13c0,17,0.2,32.4,0.6,46.1c0.4,13.7,1.1,27.5,1.9,41.3l-2.8-0.3c-9.5-0.8-17.1-1.3-23-1.3
	s-13.5,0.4-23,1.3l-2.8,0.3c1-13.9,1.7-27.7,2-41.3c0.3-13.7,0.4-29,0.5-46.1v-42.9c0-17-0.2-32.5-0.5-46.2c-0.3-13.8-1-27.5-2-41.2
	l2.8,0.3c9.5,0.8,17.1,1.3,23,1.3c3.2,0,8.5-0.2,16.1-0.6c12-0.6,22.1-1,30.3-1c15.6,0,27.1,0.8,34.7,2.4c7.1,1.4,13.9,4.2,19.9,8.4
	c13.7,9.9,20.5,23.8,20.5,41.6c0,15.1-4.2,27.6-12.6,37.4c-8.4,9.8-20.5,16.7-36.3,20.7c11.1,19.8,29.5,49.4,55.2,89l12,18.3
	c-3.2-0.2-5.5-0.4-6.9-0.6c-9.5-0.6-16.6-0.9-21.5-1c-4.8,0-12.1,0.3-21.8,1l-7,0.6L1511.3,293.9z M1555.5,213.7
	c-1.9-5.5-4.7-9.6-8.5-12.5c-4.3-3-9.3-4.9-14.5-5.5c-7.6-0.9-15.3-1.4-23-1.3c-0.6,28.6-0.9,57.2-0.9,85.8h0.9c2,0.4,4,0.6,6,0.6
	c28.6,0,42.9-15,42.9-45.1C1558.3,226.6,1557.4,219.2,1555.5,213.7z"/>
<path class="st1" d="M1732.2,271.1c7.3-10.5,13.7-21.6,19.2-33.1c6.3-12.8,14-29.2,23-49.2l5.4-12.3l3.5,0.6c3.6,0.5,7.3,0.9,11,0.9
	c3.6-0.1,7.2-0.4,10.7-0.9l4.4-0.6c-4.2,6.9-9.1,15.4-14.7,25.4c-5.6,10-11.2,20.2-16.9,30.6c-5.7,10.4-11.6,21.3-17.7,32.7
	c-6.1,11.4-11.7,22.1-16.7,32.2c0,3.4-0.1,8.4-0.3,15.1c-0.2,6.9-0.3,12.2-0.3,15.8c0,26.5,1.1,48.5,3.2,65.9l-6.3-0.6
	c-9-0.6-15.9-0.9-20.5-1c-4.4,0-11.2,0.3-20.5,1l-6.3,0.6c0.2-6.1,0.8-14.3,1.9-24.6c1.3-16.6,1.9-28.7,1.9-36.3
	c0-6.5-0.2-16.3-0.6-29.3c-6.5-12.4-14.2-27.1-23-44c-8.8-16.9-13.8-26.4-15-28.4c-1.2-2-5.3-9.7-12.5-23.2
	c-7.2-13.5-12.8-24.1-17-31.9c3.2,0.2,5.6,0.4,7.3,0.6c9.5,0.6,16.5,0.9,21.1,0.9c4.8,0,11.8-0.3,20.8-0.9c2.4-0.4,4.8-0.6,7.2-0.6
	c3.4,7.4,7.3,15.8,11.8,25.2s9.1,18.9,13.7,28.2c4.6,9.4,8.8,17.7,12.6,25.1s6.7,12.7,8.8,16.1L1732.2,271.1z"/>
<path class="st1" d="M1841.7,263.9c0-17-0.2-32.5-0.5-46.2c-0.3-13.8-1-27.5-2.1-41.2l2.8,0.3c9.5,0.8,17.1,1.3,23,1.3
	c3.6,0,9.9-0.2,18.9-0.6c14.7-0.6,27.4-1,38.2-1c18.9,0,35.7,1.7,50.3,5.1c14.6,3.4,27.2,8.9,37.9,16.7
	c10.6,7.8,18.8,18.4,24.6,31.7c5.8,13.3,8.7,29.7,8.7,49.1c0,17-2.8,32.7-8.5,46.9c-5.3,13.7-13.4,26.1-23.7,36.6
	c-10,10.1-21.9,18.1-35,23.5c-13.3,5.5-27.6,8.3-42,8.2c-12,0-27.2-0.3-45.8-0.9c-11.3-0.4-19.2-0.6-23.7-0.6
	c-5.9,0-13.6,0.4-23,1.3l-2.8,0.3c1.1-13.9,1.7-27.7,2.1-41.3c0.3-13.7,0.5-29,0.5-46.1L1841.7,263.9z M1888.4,313.8
	c0,37,0.1,57.5,0.3,61.5c1.3,0,2.5,0.1,3.8,0.3c9.3,0.4,17.3,0.6,24,0.6c24.2,0,43.1-8.3,56.8-24.8c13.7-16.5,20.5-40.9,20.5-73
	c0-25.7-6.6-46.1-19.7-61.2c-13.1-15.2-30.7-22.7-52.5-22.7c-6.9,0-12.8,0.1-17.5,0.3c-4.7,0.2-9.8,0.6-15.3,1.3
	c-0.2,4-0.3,24.5-0.3,61.5L1888.4,313.8z"/>
<path class="st1" d="M2078.8,241.5c5.7-13.6,14.1-25.9,24.6-36.1c11-10.7,24.1-18.9,38.5-24.3c15-5.8,31.5-8.7,49.4-8.7
	c15.9-0.1,31.8,2.2,47,6.9c14,4.4,27,11.6,38.2,21.1c11.1,9.7,19.8,21.9,25.4,35.5c6,14.2,9,30.6,9,49.1c0.1,15.1-3,30-8.8,43.9
	c-5.8,13.7-14.3,26.1-25.1,36.4c-11.1,10.6-24.2,18.8-38.5,24.3c-15.4,5.9-31.7,8.8-48.1,8.7c-16,0.1-32-2.1-47.3-6.8
	c-14-4.2-27-11.2-38.2-20.5c-10.9-9.1-19.5-20.9-25.6-35.3s-9.2-31.2-9.1-50.3C2070,270.3,2073,255.4,2078.8,241.5z M2240.2,214
	c-12.6-15.8-29.3-23.7-49.9-23.7c-10-0.1-19.9,2.5-28.5,7.4c-8.8,5.2-16.2,12.3-21.8,20.8c-6.3,9.5-10.9,20.1-13.6,31.2
	c-3.1,12.5-4.7,25.4-4.6,38.3c0,16.2,1.7,30.1,5.2,41.8s8.3,21.1,14.4,28.2c5.6,6.8,12.9,12.2,21,15.6c8.2,3.3,16.9,5,25.7,4.9
	c9.4,0.1,18.8-2.1,27.3-6.1c8.9-4.4,16.7-10.8,22.7-18.6c6.6-8.3,11.8-18.8,15.5-31.5s5.5-27.4,5.5-44
	C2259.1,251.3,2252.8,229.8,2240.2,214L2240.2,214z"/>
<path class="st1" d="M1121.6,598c0-30.3-0.3-57.7-0.8-82.3c-0.6-24.5-1.8-49-3.7-73.3l5,0.6c16.9,1.5,30.5,2.2,41,2.2
	s24.1-0.8,41-2.2l5-0.6c-1.5,24.3-2.6,48.8-3.4,73.3c-0.7,24.5-1.1,51.9-1.1,82.3v76.4c0,21.3,0.1,41.6,0.3,60.7
	c0.2,19.1,0.5,36.7,0.9,52.8c43,0.1,85.9-2.4,128.6-7.3l-0.6,3.4c-1.1,7.2-1.6,14.6-1.7,21.9c0,7.5,0.8,15.1,2.2,22.5v1.7
	c-4.5,0-11-0.2-19.7-0.6c-12.4-0.7-24.5-1.3-36.5-1.7s-26-0.6-42.1-0.6c-40.4,0-69.6,0.4-87.6,1.1c-8.2,0-14.5,0.2-18.8,0.6
	s-8.1,0.7-11.5,1.1h-1.1c1.9-24.7,3.1-49.2,3.7-73.6s0.8-51.7,0.8-82L1121.6,598z"/>
<path class="st1" d="M1604.2,548.9c12.5,33.1,25.7,67.2,39.6,102.2s27.4,68.3,40.7,100c13.3,31.6,24.8,57.9,34.5,78.9
	c-4.1-0.4-9.4-0.7-15.7-1.1c-14.6-1.1-25.8-1.7-33.7-1.7c-7.9,0-20,0.6-36.5,1.7l-11.2,1.1c-12.3-40.4-25.3-78.8-38.7-115.1h-1.7
	c-29.9-0.7-53.3-1.1-70.2-1.1c-13.9,0-32.8,0.4-56.7,1.1h-1.7c-14.9,37.6-27.7,76.1-38.2,115.1c-2.5-0.1-4.9-0.5-7.3-1.1
	c-6.3-0.9-12.7-1.5-19.1-1.7c-6,0.2-12,0.8-18,1.7c-3,0.4-6.4,0.8-10.1,1.1c6.7-15.3,16.6-38.2,29.5-68.5
	c12.9-30.3,27.7-65.5,44.4-105.6c16.7-40,32.4-78.7,47.2-116c14.8-37.3,27.8-70.7,39-100.2c0.4,0,2.2,0.4,5.6,1.1
	c10.4,2.3,21.1,2.3,31.4,0c3.4-0.7,5.2-1.1,5.6-1.1C1577.9,479.4,1591.7,515.8,1604.2,548.9z M1570.2,681.7l-2.8-8.4
	c-19.8-55.4-35.6-97.1-47.2-125.2c-18.3,42.3-35.9,86.9-52.8,133.6H1570.2z"/>
<path class="st1" d="M1776.9,598c0-30.3-0.3-57.7-0.8-82.3c-0.6-24.5-1.8-49-3.7-73.3l5.1,0.6c16.8,1.5,30.5,2.2,41,2.2
	c9.7,0,26.6-0.6,50.5-1.7c24-0.7,40.8-1.1,50.5-1.1c35.2,0,62.9,7.1,83.1,21.3c20.2,14.2,30.3,36.1,30.3,65.7
	c0,14.2-2.9,27-8.7,38.2c-5.5,10.9-13.3,20.5-22.8,28.1c-9,7.3-19,13.2-29.8,17.7c-9.7,4.1-19.9,7-30.3,8.7v1.1
	c10.8,0.6,21.5,2.7,31.7,6.2c11.9,4,23,9.8,33.1,17.1c10.7,7.7,19.6,17.7,26.1,29.2c6.7,11.8,10.1,25.7,10.1,41.8
	c0,19.5-3.6,36.3-10.7,50.5c-6.8,13.8-16.7,25.8-28.9,35.1c-12.5,9.4-26.7,16.2-41.8,20.2c-16.1,4.4-32.7,6.5-49.4,6.5
	c-10.1,0-24.3-0.6-42.7-1.7c-17.6-0.8-30.9-1.1-39.9-1.1c-8.6,0-18.3,0.3-29.2,0.8c-10.9,0.6-20,1.2-27.5,2
	c1.9-24.7,3.1-49.2,3.7-73.6c0.6-24.3,0.8-51.7,0.8-82L1776.9,598z M1935.5,492.7c-9.6-12.2-24.8-18.2-45.8-18.2
	c-7.1,0-12.4,0.1-16,0.3c-3.9,0.2-7.7,0.7-11.5,1.4c-0.8,15.7-1.3,30.1-1.7,43.2c-0.4,13.1-0.6,24.7-0.6,34.8c0,9,0.2,18.7,0.6,29.2
	v28.1h25.2c17.2,0,32.2-6.3,44.9-18.8c12.7-12.5,19.1-30,19.1-52.5C1949.8,520.7,1945.1,504.9,1935.5,492.7L1935.5,492.7z
	 M1884.7,643.5c-4.1,0-9,0.2-14.6,0.6h-9.6V666c-0.4,12.7-0.6,23.6-0.6,32.6c0,15.7,0.2,36.5,0.6,62.3c0.4,19.5,0.6,31.5,0.6,35.9
	h3.4c10.8,0.8,20,1.1,27.5,1.1c17.2,0,31.8-6.8,43.8-20.5c12-13.7,18-32.3,18-55.9C1953.8,669.5,1930.8,643.5,1884.7,643.5z"/>
<path class="st1" d="M2285.7,518.3c-12-32.2-34.6-48.3-67.9-48.3c-16.9,0-30.8,5-41.8,14.9c-11,9.9-16.6,21.8-16.6,35.7
	c0,16.5,5.8,29.6,17.4,39.3s29.8,20.6,54.5,32.6c15.7,7.5,28.7,14.2,39,20.2c10.5,6.2,20.3,13.5,29.2,21.9c9.4,9,17,19.8,22.2,31.7
	c5.6,12.5,8.4,27.2,8.4,44.1c0,18.7-3.6,35.9-10.7,51.4c-7,15.4-17.4,29.1-30.3,40.2c-13.1,11.2-28.8,19.9-47.2,26.1
	s-38.6,9.3-60.6,9.3c-19.1,0-36.7-2.3-52.8-7s-28.6-10.4-37.6-17.1c4.1-13.8,7.4-26.1,9.8-36.8s4.6-22.2,6.5-34.5h10.7
	c3.4,17.6,11.7,32.1,25,43.5s30.8,17.1,52.5,17.1c21,0,37.2-5.4,48.6-16.3s17.1-24.5,17.1-41c0-16.8-5.8-30.2-17.4-40.2
	c-11.6-9.9-29.4-20.7-53.3-32.3c-15.7-7.9-28.6-14.7-38.5-20.5c-10.3-6.1-19.8-13.3-28.4-21.6c-9.2-8.9-16.6-19.6-21.6-31.5
	c-5.4-12.3-8.1-26.9-8.1-43.8c0-18.7,3.4-35.6,10.1-50.8c6.3-14.6,15.8-27.7,27.8-38.2c11.8-10.3,25.6-18.2,40.4-23.3
	c15.4-5.3,31.7-7.9,48-7.9c38.2,0,68.9,9.2,92.1,27.5c-3,7.9-5.7,15.6-8.1,23.3s-5.5,17.7-9.3,30l-0.6,2.2L2285.7,518.3z"/>
</svg>
